<svg viewBox="0 0 40 9" xmlns="http://www.w3.org/2000/svg"><style><![CDATA[:root>svg{display:none}:root>svg:target{display:block}]]></style><svg fill="none" viewBox="0 0 14 9" id="arrow" xmlns="http://www.w3.org/2000/svg"><path d="m7.576 8.488 5.433-5.922a1.054 1.054 0 0 0 0-1.455c-.388-.415-.97-.415-1.358 0L6.8 6.202l-4.85-5.09C1.56.695.98.695.59 1.111a.976.976 0 0 0-.291.727c0 .311.097.52.291.727l5.433 5.922c.485.416 1.067.416 1.552 0-.097 0-.097 0 0 0Z" fill="#AAA"/></svg><svg fill="none" viewBox="0 0 40 9" id="title-icon" xmlns="http://www.w3.org/2000/svg"><path d="M33.502 9C37.085 9 40 6.981 40 4.5S37.085 0 33.502 0c-3.39 0-6.18 1.806-6.472 4.102h-4.677v-.947H0v2.69h22.353v-.947h4.677C27.322 7.194 30.112 9 33.502 9ZM21.49 5.048H.863V3.952H21.49v1.096Zm6.376-.548c0-2.042 2.528-3.704 5.636-3.704 3.107 0 5.635 1.662 5.635 3.704 0 2.042-2.528 3.704-5.635 3.704-3.108 0-5.636-1.662-5.636-3.704Z" fill="#DCCA87"/></svg></svg>