<svg width="66" height="64" fill="none" xmlns="http://www.w3.org/2000/svg"><path d="M57.78 20.503c4.526-4.57 5.658-10.86 2.524-14.025-3.134-3.164-9.366-2.021-13.892 2.548-4.28 4.322-5.523 10.184-2.993 13.483l-5.907 5.965-1.196-1.207L8.084 55.77l3.397 3.43 28.232-28.505-1.195-1.207 5.907-5.964c3.268 2.554 9.074 1.3 13.355-3.022ZM37.618 30.781 11.566 57.084l-1.386-1.398 26.052-26.303 1.386 1.398Zm7.36-8.83c-2.579-2.604-1.484-7.947 2.44-11.91 3.925-3.962 9.217-5.067 11.796-2.463 2.58 2.604 1.485 7.947-2.44 11.91-3.925 3.962-9.216 5.067-11.796 2.463Z" fill="#fff"/><path d="M20.073 9.022C15.553 4.446 9.331 3.302 6.201 6.47c-3.13 3.169-1.999 9.469 2.52 14.045 4.276 4.328 10.073 5.584 13.337 3.026l5.899 5.972-1.194 1.209 28.193 28.543 3.392-3.434-28.194-28.543-1.193 1.208-5.9-5.972c2.527-3.305 1.287-9.174-2.988-13.502ZM30.24 29.406l26.016 26.34-1.384 1.4-26.015-26.34 1.383-1.4Zm-8.734-7.442c-2.576 2.608-7.86 1.501-11.779-2.467-3.92-3.968-5.012-9.317-2.437-11.925 2.576-2.608 7.86-1.501 11.78 2.467 3.919 3.968 5.012 9.318 2.436 11.925Z" fill="#fff"/></svg>