<svg width="199" height="57" fill="none" xmlns="http://www.w3.org/2000/svg"><path d="M17.865 43.528c-3.256 0-6.087-.63-8.492-1.892-2.376-1.261-4.195-2.992-5.456-5.192-1.262-2.23-1.892-4.723-1.892-7.48 0-2.67.704-5.06 2.112-7.172 1.408-2.141 3.329-3.799 5.764-4.972 2.434-1.203 5.148-1.804 8.14-1.804 1.378 0 2.786.132 4.224.396 1.437.235 2.566.528 3.388.88.234.117.381.235.44.352.058.117.102.337.132.66l.352 5.764c0 .117-.074.19-.22.22-.147.03-.25 0-.308-.088-1.027-2.23-2.376-3.96-4.048-5.192-1.672-1.261-3.608-1.892-5.808-1.892-2.846 0-5.06 1.012-6.644 3.036-1.584 1.995-2.376 4.723-2.376 8.184 0 3.021.528 5.69 1.584 8.008 1.056 2.317 2.493 4.107 4.312 5.368 1.848 1.261 3.93 1.892 6.248 1.892 1.056 0 1.862-.147 2.42-.44.557-.323.938-.836 1.144-1.54.234-.733.352-1.79.352-3.168 0-1.437-.132-2.479-.396-3.124s-.748-1.07-1.452-1.276c-.704-.205-1.834-.308-3.388-.308-.176 0-.264-.117-.264-.352a.49.49 0 0 1 .044-.22c.058-.088.117-.132.176-.132 2.434.147 4.458.22 6.072.22 1.525 0 3.109-.044 4.752-.132.117 0 .19.103.22.308.029.205-.015.308-.132.308-.47-.03-.763.088-.88.352-.118.264-.176.865-.176 1.804v2.992c0 1.32.044 2.244.132 2.772.088.528.132.895.132 1.1 0 .176-.03.293-.088.352-.03.059-.132.117-.308.176-3.755.821-7.026 1.232-9.812 1.232Zm37.382-7.524a.298.298 0 0 1 .22-.088c.088 0 .176.03.264.088.088.03.117.059.088.088-.294 1.907-.44 3.99-.44 6.248 0 .235-.044.41-.132.528-.088.088-.264.132-.528.132H34.655c-.117 0-.176-.088-.176-.264 0-.176.044-.264.132-.264.88 0 1.51-.073 1.892-.22.41-.147.675-.425.792-.836.146-.41.22-1.07.22-1.98V19.064c0-.88-.074-1.525-.22-1.936a1.318 1.318 0 0 0-.836-.836c-.41-.176-1.027-.264-1.848-.264-.088 0-.147-.088-.176-.264 0-.176.03-.264.088-.264h18.964c.234 0 .352.132.352.396l.088 5.808c0 .088-.088.132-.264.132-.147 0-.235-.03-.264-.088-.499-1.643-1.408-2.933-2.728-3.872-1.29-.968-2.83-1.452-4.62-1.452h-.836c-.91 0-1.57.073-1.98.22-.382.117-.63.352-.748.704-.117.352-.19.939-.22 1.76v8.976h5.5c1.496 0 2.596-.264 3.3-.792.704-.528 1.056-1.379 1.056-2.552 0-.117.102-.176.308-.176.205 0 .308.073.308.22l-.044 2.42c-.03.352-.044.85-.044 1.496 0 .939.014 1.643.044 2.112l.044 2.376c0 .147-.088.22-.264.22a.831.831 0 0 1-.264-.044c-.059-.059-.088-.117-.088-.176 0-1.261-.396-2.215-1.188-2.86-.763-.675-1.848-1.012-3.256-1.012h-5.412v9.944c0 1.173.176 1.936.528 2.288.381.352 1.158.528 2.332.528h1.232a9.064 9.064 0 0 0 5.236-1.628c1.584-1.115 2.801-2.596 3.652-4.444Zm34.816 6.468c.087 0 .132.088.132.264.029.176-.015.264-.132.264h-7.216c-.704 0-1.936-1.173-3.697-3.52-1.73-2.376-3.828-5.94-6.291-10.692-.822.205-1.731.308-2.728.308-.147 0-.338-.03-.573-.088v10.428c-.029.85.03 1.496.176 1.936.177.41.47.704.88.88.44.147 1.1.22 1.98.22.118 0 .177.088.177.264.029.176-.015.264-.133.264-.997 0-1.76-.015-2.288-.044l-3.255-.044-3.3.044a49.3 49.3 0 0 1-2.377.044c-.117 0-.19-.088-.22-.264 0-.176.06-.264.176-.264.968 0 1.687-.073 2.157-.22.469-.176.777-.47.923-.88.177-.44.28-1.085.309-1.936V19.064c0-.88-.089-1.525-.264-1.936-.147-.41-.44-.69-.88-.836-.44-.176-1.115-.264-2.025-.264-.117 0-.175-.088-.175-.264 0-.176.058-.264.175-.264l2.332.044a72 72 0 0 0 3.168.088c.998 0 2.083-.059 3.257-.176a38.035 38.035 0 0 1 1.847-.088c2.963 0 5.178.484 6.645 1.452 1.495.968 2.243 2.317 2.243 4.048 0 1.261-.425 2.479-1.275 3.652-.822 1.173-1.922 2.156-3.3 2.948 2.288 3.784 4.224 6.761 5.808 8.932 1.613 2.141 3.02 3.696 4.224 4.664 1.231.939 2.405 1.408 3.52 1.408ZM69.558 27.776a5.33 5.33 0 0 0 1.276.132c1.936 0 3.3-.425 4.093-1.276.82-.85 1.231-2.273 1.231-4.268 0-2.083-.41-3.608-1.231-4.576-.793-.997-1.775-1.496-2.949-1.496-.791 0-1.334.059-1.627.176-.294.088-.5.323-.617.704-.087.352-.146 1.012-.175 1.98v8.624ZM93.65 43c-.058 0-.088-.088-.088-.264 0-.176.03-.264.088-.264.91 0 1.555-.073 1.936-.22a1.32 1.32 0 0 0 .837-.836c.146-.41.22-1.07.22-1.98V19.064c0-.85-.088-1.481-.264-1.892-.147-.44-.426-.733-.837-.88-.41-.176-1.04-.264-1.891-.264-.06 0-.103-.088-.133-.264 0-.176.044-.264.133-.264l2.2.044a71.9 71.9 0 0 0 3.124.088c.88 0 1.994-.03 3.344-.088l2.156-.044c.058 0 .088.088.088.264 0 .176-.03.264-.088.264-.88 0-1.526.088-1.936.264-.411.176-.69.47-.836.88-.118.41-.191 1.07-.22 1.98v20.284c0 .88.073 1.525.22 1.936.176.41.469.704.88.88.41.147 1.041.22 1.892.22.058 0 .088.088.088.264 0 .176-.03.264-.088.264-.91 0-1.643-.015-2.2-.044l-3.213-.044-3.124.044c-.557.03-1.32.044-2.287.044Zm2.552-29.832c-.117 0-.205-.059-.263-.176-.06-.147-.044-.25.043-.308.734-.587 1.702-1.51 2.904-2.772l1.805-1.804c.146-.147.674-.088 1.584.176a13.22 13.22 0 0 1 2.508.88c.762.323.982.513.66.572a49.813 49.813 0 0 0-9.152 3.388l-.089.044Zm29.542 30.36c-3.608 0-6.571-.704-8.888-2.112-2.317-1.408-3.989-3.183-5.016-5.324a15.856 15.856 0 0 1-1.54-6.864c0-2.904.704-5.427 2.112-7.568a13.772 13.772 0 0 1 5.676-4.928c2.376-1.144 4.943-1.716 7.7-1.716 1.349 0 2.757.132 4.224.396 1.467.235 2.655.528 3.564.88.235.147.381.279.44.396.088.117.132.323.132.616l.308 5.896c0 .088-.073.132-.22.132a.297.297 0 0 1-.264-.132c-1.085-2.23-2.479-3.945-4.18-5.148-1.672-1.232-3.579-1.848-5.72-1.848-2.787 0-4.928 1.012-6.424 3.036-1.467 2.024-2.2 4.87-2.2 8.536 0 2.64.455 5.104 1.364 7.392.939 2.288 2.2 4.107 3.784 5.456 1.584 1.35 3.329 2.024 5.236 2.024 3.021 0 5.837-2.23 8.448-6.688.059-.088.132-.132.22-.132.176 0 .264.088.264.264l-.264 5.06c-.059.381-.117.63-.176.748-.059.088-.22.176-.484.264a24.187 24.187 0 0 1-8.096 1.364Zm42.934-1.056c.058 0 .088.088.088.264 0 .176-.03.264-.088.264-.822 0-1.496-.015-2.024-.044l-3.3-.044-3.168.044c-.558.03-1.32.044-2.288.044-.059 0-.103-.088-.132-.264 0-.176.044-.264.132-.264.909 0 1.554-.073 1.936-.22.41-.147.674-.425.792-.836.117-.41.176-1.07.176-1.98v-10.12H148.13v10.12c0 .88.073 1.525.22 1.936.176.41.469.704.88.88.41.147 1.056.22 1.936.22.088 0 .132.088.132.264 0 .176-.044.264-.132.264a43.68 43.68 0 0 1-2.244-.044l-3.256-.044-3.036.044a43.82 43.82 0 0 1-2.2.044c-.088 0-.132-.088-.132-.264 0-.176.044-.264.132-.264.88 0 1.51-.073 1.892-.22.41-.147.674-.425.792-.836.146-.41.22-1.07.22-1.98V19.064c.029-1.232-.147-2.039-.528-2.42-.382-.41-1.174-.616-2.376-.616-.088 0-.132-.088-.132-.264 0-.176.044-.264.132-.264l2.112.044a71.87 71.87 0 0 0 3.124.088c.792 0 1.862-.03 3.212-.088l2.244-.044c.058 0 .088.088.088.264 0 .176-.03.264-.088.264-.88 0-1.526.088-1.936.264-.411.176-.69.484-.836.924-.118.41-.191 1.056-.22 1.936v8.932h12.628v-8.932c0-1.261-.191-2.097-.572-2.508-.352-.41-1.13-.616-2.332-.616-.059 0-.103-.088-.132-.264 0-.176.044-.264.132-.264l2.156.044a71.92 71.92 0 0 0 3.168.088c.792 0 1.833-.03 3.124-.088l2.244-.044c.088 0 .132.088.132.264 0 .176-.044.264-.132.264-.88 0-1.526.088-1.936.264-.382.147-.646.425-.792.836-.147.41-.25 1.056-.308 1.936v20.372c0 .85.088 1.496.264 1.936.205.41.528.704.968.88.44.147 1.085.22 1.936.22Zm10.447.528c-.088 0-.132-.088-.132-.264 0-.176.03-.264.088-.264 1.232 0 2.127-.073 2.684-.22.587-.147.983-.425 1.188-.836.206-.44.308-1.1.308-1.98V19.064c.03-1.027-.102-1.701-.396-2.024-.293-.352-.85-.528-1.672-.528h-.572c-.997 0-1.98.323-2.948.968-.968.616-1.789 1.452-2.464 2.508a7.768 7.768 0 0 0-1.232 3.388c0 .059-.073.088-.22.088a.831.831 0 0 1-.264-.044c-.058-.059-.073-.103-.044-.132.147-1.115.367-4.033.66-8.756 0-.088.074-.132.22-.132.088 0 .162.015.22.044.088.03.132.073.132.132 0 .616.66.924 1.98.924 2.376.088 5.354.132 8.932.132 1.614 0 3.418-.03 5.412-.088l3.08-.044c.968 0 1.672-.073 2.112-.22.44-.147.719-.44.836-.88.059-.088.162-.117.308-.088.176 0 .25.059.22.176-.088 1.29-.176 2.919-.264 4.884-.088 1.936-.117 3.241-.088 3.916 0 .088-.088.132-.264.132-.234 0-.352-.059-.352-.176a6.89 6.89 0 0 0-.836-3.344 6.264 6.264 0 0 0-2.244-2.464 5.498 5.498 0 0 0-3.08-.924h-.572c-.586 0-1.012.073-1.276.22-.234.147-.381.396-.44.748-.058.323-.102.88-.132 1.672l.044 20.284c0 .91.088 1.57.264 1.98.206.41.587.69 1.144.836.558.147 1.467.22 2.728.22.088 0 .132.088.132.264 0 .176-.044.264-.132.264a57 57 0 0 1-2.552-.044l-4.004-.044-3.784.044c-.645.03-1.554.044-2.728.044Z" fill="#fff"/></svg>